<?xml version="1.0" standalone="no"?>
<!DOCTYPE svg PUBLIC "-//W3C//DTD SVG 20010904//EN"
 "http://www.w3.org/TR/2001/REC-SVG-20010904/DTD/svg10.dtd">
<svg version="1.0" xmlns="http://www.w3.org/2000/svg"
 width="64.000000pt" height="64.000000pt" viewBox="0 0 64.000000 64.000000"
 preserveAspectRatio="xMidYMid meet">

<g transform="translate(0.000000,64.000000) scale(0.100000,-0.100000)"
fill="#000000" stroke="none">
<path d="M135 621 c-112 -51 -165 -180 -116 -286 52 -114 180 -164 290 -114
l45 20 37 -37 c21 -21 36 -40 34 -44 -2 -3 31 -42 75 -85 68 -67 81 -77 104
-71 16 4 28 16 32 32 6 23 -4 36 -71 104 -43 44 -82 77 -85 75 -4 -2 -23 13
-44 34 l-37 37 20 45 c81 178 -108 371 -284 290z m155 -71 c45 -23 80 -80 80
-131 0 -73 -76 -149 -150 -149 -50 0 -107 35 -130 80 -25 50 -25 90 0 140 37
73 124 99 200 60z"/>
<path d="M110 377 c0 -19 16 -31 24 -18 3 5 -1 14 -9 21 -12 10 -15 10 -15 -3z"/>
<path d="M150 327 c18 -20 80 -34 80 -19 0 5 -10 12 -22 15 -13 3 -34 9 -48
13 -23 6 -24 5 -10 -9z"/>
</g>
</svg>
