<?xml version="1.0" encoding="UTF-8" standalone="no"?>
<!-- Creator: CorelDRAW X6 -->

<svg
   xml:space="preserve"
   width="100%"
   height="100%"
   version="1.1"
   style="shape-rendering:geometricPrecision; text-rendering:geometricPrecision; image-rendering:optimizeQuality; fill-rule:evenodd; clip-rule:evenodd"
   viewBox="0 0 500 500"
   id="svg1"
   sodipodi:docname="undomono_105882.svg"
   inkscape:version="1.3.2 (091e20e, 2023-11-25, custom)"
   xmlns:inkscape="http://www.inkscape.org/namespaces/inkscape"
   xmlns:sodipodi="http://sodipodi.sourceforge.net/DTD/sodipodi-0.dtd"
   xmlns="http://www.w3.org/2000/svg"
   xmlns:svg="http://www.w3.org/2000/svg"><sodipodi:namedview
   id="namedview1"
   pagecolor="#ffffff"
   bordercolor="#000000"
   borderopacity="0.25"
   inkscape:showpageshadow="2"
   inkscape:pageopacity="0.0"
   inkscape:pagecheckerboard="0"
   inkscape:deskcolor="#d1d1d1"
   inkscape:zoom="1.154"
   inkscape:cx="250"
   inkscape:cy="250"
   inkscape:window-width="1760"
   inkscape:window-height="919"
   inkscape:window-x="-8"
   inkscape:window-y="-8"
   inkscape:window-maximized="1"
   inkscape:current-layer="Layer_x0020_1" />
 <defs
   id="defs1">
  <style
   type="text/css"
   id="style1">
   <![CDATA[
    .fil0 {fill:#202020}
   ]]>
  </style>
 </defs>
 <g
   id="Layer_x0020_1"
   inkscape:label="Layer 1">
  <metadata
   id="CorelCorpID_0Corel-Layer" />
  <path
   class="fil0"
   d="M286 461c-14,0 -14,20 0,20 103,0 184,-89 184,-191 0,-103 -83,-186 -186,-186l-77 0 0 -60c0,-26 -30,-33 -51,-13l-113 114c-17,17 -17,33 0,50l113 114c21,20 51,13 51,-13l0 -60 77 0c64,0 115,52 115,116 0,63 -49,109 -113,109z"
   id="path1"
   inkscape:label="path1"
   style="fill:#359b9b;fill-opacity:1;paint-order:fill markers stroke;stroke:#000000;stroke-opacity:1" />
 </g>
</svg>
